<svg width="124" height="46" viewBox="0 0 124 46" fill="none" xmlns="http://www.w3.org/2000/svg">
<path d="M15.092 23.92C15.764 23.92 16.1 24.424 16.1 25.432C16.1 27.328 14.612 28.276 11.636 28.276C11.06 28.276 10.232 28.168 9.152 27.952C9.464 29.44 9.716 31.096 9.908 32.92C10.124 34.72 10.232 36.208 10.232 37.384C10.232 39.976 9.812 41.956 8.972 43.324C8.132 44.692 7.028 45.376 5.66 45.376C3.932 45.376 2.696 44.152 1.952 41.704C1.232 39.256 0.872 35.56 0.872 30.616C0.872 26.008 1.364 21.34 2.348 16.612C3.356 11.86 4.724 7.936 6.452 4.84C8.204 1.72 10.124 0.159998 12.212 0.159998C13.34 0.159998 14.216 0.663998 14.84 1.672C15.488 2.68 15.812 4.036 15.812 5.74C15.812 11.38 12.44 17.524 5.696 24.172C5.456 26.524 5.336 28.588 5.336 30.364C5.336 32.836 5.42 35.368 5.588 37.96C5.756 40.576 6.032 41.884 6.416 41.884C7.136 41.884 7.496 40.636 7.496 38.14C7.496 36.268 7.364 34.456 7.1 32.704C6.86 30.952 6.524 29.104 6.092 27.16C6.068 26.848 6.164 26.452 6.38 25.972C6.62 25.492 6.908 25.072 7.244 24.712C7.58 24.352 7.88 24.172 8.144 24.172C8.624 24.172 9.2 24.196 9.872 24.244C10.088 24.268 10.34 24.28 10.628 24.28C11.588 24.28 12.656 24.196 13.832 24.028C14.024 24.004 14.228 23.98 14.444 23.956C14.66 23.932 14.876 23.92 15.092 23.92ZM11.456 3.724C11.024 3.724 10.484 4.456 9.836 5.92C9.212 7.384 8.588 9.328 7.964 11.752C7.34 14.152 6.8 16.696 6.344 19.384C8.264 17.2 9.74 14.932 10.772 12.58C11.804 10.204 12.332 7.984 12.356 5.92C12.356 4.456 12.056 3.724 11.456 3.724ZM29.4403 25.972C29.7523 25.972 29.9923 26.116 30.1602 26.404C30.3523 26.692 30.4483 27.088 30.4483 27.592C30.4483 28.552 30.2203 29.296 29.7643 29.824C28.8763 30.904 27.6163 31.9 25.9843 32.812C24.3763 33.724 22.6483 34.18 20.8003 34.18C18.2803 34.18 16.3243 33.496 14.9323 32.128C13.5403 30.76 12.8442 28.888 12.8442 26.512C12.8442 24.856 13.1923 23.32 13.8883 21.904C14.5843 20.464 15.5443 19.324 16.7683 18.484C18.0163 17.644 19.4203 17.224 20.9803 17.224C22.3723 17.224 23.4883 17.644 24.3283 18.484C25.1683 19.3 25.5883 20.416 25.5883 21.832C25.5883 23.488 24.9883 24.916 23.7883 26.116C22.6123 27.292 20.6083 28.228 17.7763 28.924C18.3763 30.028 19.5163 30.58 21.1963 30.58C22.2763 30.58 23.5003 30.208 24.8683 29.464C26.2603 28.696 27.4603 27.7 28.4683 26.476C28.7563 26.14 29.0803 25.972 29.4403 25.972ZM20.3683 20.752C19.4803 20.752 18.7243 21.268 18.1003 22.3C17.5003 23.332 17.2003 24.58 17.2003 26.044V26.116C18.6163 25.78 19.7323 25.276 20.5483 24.604C21.3643 23.932 21.7723 23.152 21.7723 22.264C21.7723 21.808 21.6403 21.448 21.3763 21.184C21.1363 20.896 20.8003 20.752 20.3683 20.752ZM43.5731 25.972C43.8851 25.972 44.1251 26.116 44.2931 26.404C44.4851 26.692 44.5811 27.088 44.5811 27.592C44.5811 28.552 44.3531 29.296 43.8971 29.824C43.0091 30.904 41.7491 31.9 40.1171 32.812C38.5091 33.724 36.7811 34.18 34.9331 34.18C32.4131 34.18 30.4571 33.496 29.0651 32.128C27.6731 30.76 26.9771 28.888 26.9771 26.512C26.9771 24.856 27.3251 23.32 28.0211 21.904C28.7171 20.464 29.6771 19.324 30.9011 18.484C32.1491 17.644 33.5531 17.224 35.1131 17.224C36.5051 17.224 37.6211 17.644 38.4611 18.484C39.3011 19.3 39.7211 20.416 39.7211 21.832C39.7211 23.488 39.1211 24.916 37.9211 26.116C36.7451 27.292 34.7411 28.228 31.9091 28.924C32.5091 30.028 33.6491 30.58 35.3291 30.58C36.4091 30.58 37.6331 30.208 39.0011 29.464C40.3931 28.696 41.5931 27.7 42.6011 26.476C42.8891 26.14 43.2131 25.972 43.5731 25.972ZM34.5011 20.752C33.6131 20.752 32.8571 21.268 32.2331 22.3C31.6331 23.332 31.3331 24.58 31.3331 26.044V26.116C32.7491 25.78 33.8651 25.276 34.6811 24.604C35.4971 23.932 35.9051 23.152 35.9051 22.264C35.9051 21.808 35.7731 21.448 35.5091 21.184C35.2691 20.896 34.9331 20.752 34.5011 20.752ZM61.9221 25.972C62.2341 25.972 62.4741 26.116 62.6421 26.404C62.8341 26.692 62.9301 27.088 62.9301 27.592C62.9301 28.552 62.7021 29.296 62.2461 29.824C61.2621 31.024 60.1821 32.056 59.0061 32.92C57.8301 33.76 56.6661 34.18 55.5141 34.18C53.6901 34.18 52.2981 33.112 51.3381 30.976C50.3301 32.248 49.4421 33.1 48.6741 33.532C47.9301 33.964 47.0541 34.18 46.0461 34.18C44.5821 34.18 43.3701 33.64 42.4101 32.56C41.4741 31.456 41.0061 30.028 41.0061 28.276C41.0061 26.356 41.4141 24.58 42.2301 22.948C43.0461 21.292 44.1621 19.948 45.5781 18.916C47.0181 17.86 48.6261 17.236 50.4021 17.044C50.8581 12.388 51.7221 8.416 52.9941 5.128C54.2901 1.816 55.9821 0.159998 58.0701 0.159998C59.1021 0.159998 59.9541 0.627998 60.6261 1.564C61.3221 2.5 61.6701 3.916 61.6701 5.812C61.6701 8.5 61.0101 11.644 59.6901 15.244C58.3701 18.844 56.6061 22.54 54.3981 26.332C54.4941 27.724 54.6981 28.72 55.0101 29.32C55.3461 29.92 55.7661 30.22 56.2701 30.22C56.9181 30.22 57.5781 29.932 58.2501 29.356C58.9221 28.78 59.8221 27.82 60.9501 26.476C61.2381 26.14 61.5621 25.972 61.9221 25.972ZM57.6741 3.688C57.2181 3.688 56.7621 4.504 56.3061 6.136C55.8501 7.744 55.4541 9.856 55.1181 12.472C54.8061 15.088 54.5781 17.824 54.4341 20.68C57.1221 14.824 58.4661 10.12 58.4661 6.568C58.4661 5.656 58.3821 4.948 58.2141 4.444C58.0701 3.94 57.8901 3.688 57.6741 3.688ZM47.3061 30.544C47.7621 30.544 48.2181 30.364 48.6741 30.004C49.1301 29.62 49.7061 28.924 50.4021 27.916C50.1621 26.62 50.0421 25.168 50.0421 23.56C50.0421 22.984 50.0661 22.048 50.1141 20.752C48.7941 21.16 47.6901 22.048 46.8021 23.416C45.9381 24.76 45.5061 26.26 45.5061 27.916C45.5061 29.668 46.1061 30.544 47.3061 30.544ZM86.8574 23.056C86.9294 23.032 87.0494 23.02 87.2174 23.02C87.5774 23.02 87.8534 23.14 88.0454 23.38C88.2374 23.62 88.3334 23.944 88.3334 24.352C88.3334 25.096 88.1894 25.684 87.9014 26.116C87.6134 26.524 87.1814 26.824 86.6054 27.016C85.5014 27.376 84.3254 27.556 83.0774 27.556C82.0214 27.556 81.0254 27.412 80.0894 27.124C79.3934 28.252 78.6254 29.416 77.7854 30.616C76.8254 31.984 75.9974 32.92 75.3014 33.424C74.6294 33.928 73.8614 34.18 72.9974 34.18C72.0374 34.18 71.3054 33.808 70.8014 33.064C70.3214 32.32 70.0214 31.096 69.9014 29.392L69.7214 26.764C68.9774 28.78 68.3054 30.316 67.7054 31.372C67.1294 32.428 66.5414 33.16 65.9414 33.568C65.3654 33.976 64.6814 34.18 63.8894 34.18C62.9054 34.18 62.1254 33.796 61.5494 33.028C60.9974 32.26 60.6494 31.048 60.5054 29.392C60.2174 26.032 60.0734 23.092 60.0734 20.572V19.312C60.0974 18.52 60.3134 17.968 60.7214 17.656C61.1294 17.344 61.7414 17.188 62.5574 17.188C63.1814 17.188 63.6374 17.332 63.9254 17.62C64.2374 17.884 64.3934 18.34 64.3934 18.988C64.3934 21.748 64.5614 25.336 64.8974 29.752C66.5294 26.32 68.0294 22.744 69.3974 19.024C69.6614 18.304 69.9734 17.824 70.3334 17.584C70.7174 17.32 71.1734 17.188 71.7014 17.188C72.3494 17.188 72.7934 17.32 73.0334 17.584C73.2974 17.848 73.4294 18.316 73.4294 18.988C73.4294 21.748 73.5974 25.336 73.9334 29.752C75.3734 27.616 76.4534 25.912 77.1734 24.64C76.8134 23.944 76.6334 23.116 76.6334 22.156C76.6334 21.34 76.8134 20.548 77.1734 19.78C77.5334 19.012 78.0254 18.388 78.6494 17.908C79.2734 17.428 79.9814 17.188 80.7734 17.188C81.4694 17.188 82.0334 17.44 82.4654 17.944C82.8974 18.424 83.1134 19.132 83.1134 20.068C83.1134 21.148 82.8254 22.384 82.2494 23.776C83.1614 23.728 84.3734 23.548 85.8854 23.236L86.8574 23.056ZM89.9245 14.848C88.9165 14.848 88.1605 14.62 87.6565 14.164C87.1525 13.684 86.9005 13.024 86.9005 12.184C86.9005 11.344 87.2245 10.648 87.8725 10.096C88.5445 9.52 89.3725 9.232 90.3565 9.232C91.2445 9.232 91.9645 9.448 92.5165 9.88C93.0685 10.312 93.3445 10.924 93.3445 11.716C93.3445 12.676 93.0325 13.444 92.4085 14.02C91.7845 14.572 90.9565 14.848 89.9245 14.848ZM89.6365 34.18C88.0765 34.18 86.9365 33.628 86.2165 32.524C85.5205 31.42 85.1725 29.956 85.1725 28.132C85.1725 27.052 85.3045 25.672 85.5685 23.992C85.8565 22.288 86.2165 20.704 86.6485 19.24C86.8645 18.472 87.1525 17.944 87.5125 17.656C87.8725 17.368 88.4485 17.224 89.2405 17.224C90.4645 17.224 91.0765 17.632 91.0765 18.448C91.0765 19.048 90.8485 20.44 90.3925 22.624C89.8165 25.264 89.5285 27.052 89.5285 27.988C89.5285 28.708 89.6245 29.26 89.8165 29.644C90.0085 30.028 90.3325 30.22 90.7885 30.22C91.2205 30.22 91.7605 29.92 92.4085 29.32C93.0565 28.72 93.9205 27.772 95.0005 26.476C95.2885 26.14 95.6125 25.972 95.9725 25.972C96.2845 25.972 96.5245 26.116 96.6925 26.404C96.8845 26.692 96.9805 27.088 96.9805 27.592C96.9805 28.552 96.7525 29.296 96.2965 29.824C93.9205 32.728 91.7005 34.18 89.6365 34.18ZM100.764 34.972C99.5158 34.972 98.5558 34.684 97.8838 34.108C97.2358 33.532 96.9118 32.884 96.9118 32.164C96.9118 31.54 97.1398 31 97.5958 30.544C98.0518 30.088 98.7238 29.86 99.6118 29.86C99.9238 29.86 100.284 29.896 100.692 29.968C101.124 30.016 101.448 30.052 101.664 30.076C101.64 29.452 101.496 28.864 101.232 28.312C100.992 27.76 100.68 27.232 100.296 26.728C99.9118 26.2 99.5518 25.744 99.2158 25.36C98.4718 26.776 97.7278 27.952 96.9838 28.888C96.2638 29.824 95.4718 30.712 94.6078 31.552C94.1758 31.984 93.7198 32.2 93.2398 32.2C92.8558 32.2 92.5438 32.068 92.3038 31.804C92.0638 31.516 91.9438 31.168 91.9438 30.76C91.9438 30.28 92.1118 29.836 92.4478 29.428L92.9158 28.852C94.2358 27.22 95.2318 25.876 95.9038 24.82C96.3118 24.124 96.7918 23.2 97.3438 22.048C97.8958 20.872 98.4358 19.66 98.9638 18.412C99.4198 17.356 100.368 16.828 101.808 16.828C102.48 16.828 102.948 16.888 103.212 17.008C103.476 17.128 103.608 17.32 103.608 17.584C103.608 17.728 103.56 17.956 103.464 18.268C103.368 18.58 103.236 18.892 103.068 19.204C102.636 20.068 102.42 20.8 102.42 21.4C102.42 21.76 102.54 22.156 102.78 22.588C103.044 23.02 103.44 23.56 103.968 24.208C104.736 25.216 105.312 26.08 105.696 26.8C106.104 27.496 106.308 28.264 106.308 29.104C106.308 29.344 106.284 29.68 106.236 30.112C107.412 29.656 108.792 28.444 110.376 26.476C110.664 26.14 110.988 25.972 111.348 25.972C111.66 25.972 111.9 26.116 112.068 26.404C112.26 26.692 112.356 27.088 112.356 27.592C112.356 28.504 112.128 29.248 111.672 29.824C110.472 31.312 109.32 32.332 108.216 32.884C107.136 33.412 105.792 33.7 104.184 33.748C103.224 34.564 102.084 34.972 100.764 34.972ZM122.319 27.052C122.631 27.052 122.871 27.196 123.039 27.484C123.231 27.772 123.327 28.168 123.327 28.672C123.327 29.536 123.123 30.28 122.715 30.904C122.043 31.936 121.155 32.74 120.051 33.316C118.971 33.892 117.675 34.18 116.163 34.18C113.859 34.18 112.071 33.496 110.799 32.128C109.527 30.736 108.891 28.864 108.891 26.512C108.891 24.856 109.239 23.32 109.935 21.904C110.631 20.464 111.591 19.324 112.815 18.484C114.063 17.644 115.467 17.224 117.027 17.224C118.419 17.224 119.535 17.644 120.375 18.484C121.215 19.3 121.635 20.416 121.635 21.832C121.635 23.488 121.035 24.916 119.835 26.116C118.659 27.292 116.643 28.228 113.787 28.924C114.363 30.028 115.335 30.58 116.703 30.58C117.687 30.58 118.491 30.352 119.115 29.896C119.763 29.44 120.507 28.672 121.347 27.592C121.635 27.232 121.959 27.052 122.319 27.052ZM116.415 20.752C115.527 20.752 114.771 21.268 114.147 22.3C113.547 23.332 113.247 24.58 113.247 26.044V26.116C114.663 25.78 115.779 25.276 116.595 24.604C117.411 23.932 117.819 23.152 117.819 22.264C117.819 21.808 117.687 21.448 117.423 21.184C117.183 20.896 116.847 20.752 116.415 20.752Z" fill="white"/>
</svg>
