<svg width="82" height="31" viewBox="0 0 82 31" fill="none" xmlns="http://www.w3.org/2000/svg">
<path d="M9.728 16.28C10.176 16.28 10.4 16.616 10.4 17.288C10.4 18.552 9.408 19.184 7.424 19.184C7.04 19.184 6.488 19.112 5.768 18.968C5.976 19.96 6.144 21.064 6.272 22.28C6.416 23.48 6.488 24.472 6.488 25.256C6.488 26.984 6.208 28.304 5.648 29.216C5.088 30.128 4.352 30.584 3.44 30.584C2.288 30.584 1.464 29.768 0.968 28.136C0.488 26.504 0.248 24.04 0.248 20.744C0.248 17.672 0.576 14.56 1.232 11.408C1.904 8.24 2.816 5.624 3.968 3.56C5.136 1.48 6.416 0.439999 7.808 0.439999C8.56 0.439999 9.144 0.775999 9.56 1.448C9.992 2.12 10.208 3.024 10.208 4.16C10.208 7.92 7.96 12.016 3.464 16.448C3.304 18.016 3.224 19.392 3.224 20.576C3.224 22.224 3.28 23.912 3.392 25.64C3.504 27.384 3.688 28.256 3.944 28.256C4.424 28.256 4.664 27.424 4.664 25.76C4.664 24.512 4.576 23.304 4.4 22.136C4.24 20.968 4.016 19.736 3.728 18.44C3.712 18.232 3.776 17.968 3.92 17.648C4.08 17.328 4.272 17.048 4.496 16.808C4.72 16.568 4.92 16.448 5.096 16.448C5.416 16.448 5.8 16.464 6.248 16.496C6.392 16.512 6.56 16.52 6.752 16.52C7.392 16.52 8.104 16.464 8.888 16.352C9.016 16.336 9.152 16.32 9.296 16.304C9.44 16.288 9.584 16.28 9.728 16.28ZM7.304 2.816C7.016 2.816 6.656 3.304 6.224 4.28C5.808 5.256 5.392 6.552 4.976 8.168C4.56 9.768 4.2 11.464 3.896 13.256C5.176 11.8 6.16 10.288 6.848 8.72C7.536 7.136 7.888 5.656 7.904 4.28C7.904 3.304 7.704 2.816 7.304 2.816ZM19.2935 17.648C19.5015 17.648 19.6615 17.744 19.7735 17.936C19.9015 18.128 19.9655 18.392 19.9655 18.728C19.9655 19.368 19.8135 19.864 19.5095 20.216C18.9175 20.936 18.0775 21.6 16.9895 22.208C15.9175 22.816 14.7655 23.12 13.5335 23.12C11.8535 23.12 10.5495 22.664 9.6215 21.752C8.6935 20.84 8.2295 19.592 8.2295 18.008C8.2295 16.904 8.4615 15.88 8.9255 14.936C9.3895 13.976 10.0295 13.216 10.8455 12.656C11.6775 12.096 12.6135 11.816 13.6535 11.816C14.5815 11.816 15.3255 12.096 15.8855 12.656C16.4455 13.2 16.7255 13.944 16.7255 14.888C16.7255 15.992 16.3255 16.944 15.5255 17.744C14.7415 18.528 13.4055 19.152 11.5175 19.616C11.9175 20.352 12.6775 20.72 13.7975 20.72C14.5175 20.72 15.3335 20.472 16.2455 19.976C17.1735 19.464 17.9735 18.8 18.6455 17.984C18.8375 17.76 19.0535 17.648 19.2935 17.648ZM13.2455 14.168C12.6535 14.168 12.1495 14.512 11.7335 15.2C11.3335 15.888 11.1335 16.72 11.1335 17.696V17.744C12.0775 17.52 12.8215 17.184 13.3655 16.736C13.9095 16.288 14.1815 15.768 14.1815 15.176C14.1815 14.872 14.0935 14.632 13.9175 14.456C13.7575 14.264 13.5335 14.168 13.2455 14.168ZM28.7154 17.648C28.9234 17.648 29.0834 17.744 29.1954 17.936C29.3234 18.128 29.3874 18.392 29.3874 18.728C29.3874 19.368 29.2354 19.864 28.9314 20.216C28.3394 20.936 27.4994 21.6 26.4114 22.208C25.3394 22.816 24.1874 23.12 22.9554 23.12C21.2754 23.12 19.9714 22.664 19.0434 21.752C18.1154 20.84 17.6514 19.592 17.6514 18.008C17.6514 16.904 17.8834 15.88 18.3474 14.936C18.8114 13.976 19.4514 13.216 20.2674 12.656C21.0994 12.096 22.0354 11.816 23.0754 11.816C24.0034 11.816 24.7474 12.096 25.3074 12.656C25.8674 13.2 26.1474 13.944 26.1474 14.888C26.1474 15.992 25.7474 16.944 24.9474 17.744C24.1634 18.528 22.8274 19.152 20.9394 19.616C21.3394 20.352 22.0994 20.72 23.2194 20.72C23.9394 20.72 24.7554 20.472 25.6674 19.976C26.5954 19.464 27.3954 18.8 28.0674 17.984C28.2594 17.76 28.4754 17.648 28.7154 17.648ZM22.6674 14.168C22.0754 14.168 21.5714 14.512 21.1554 15.2C20.7554 15.888 20.5554 16.72 20.5554 17.696V17.744C21.4994 17.52 22.2434 17.184 22.7874 16.736C23.3314 16.288 23.6034 15.768 23.6034 15.176C23.6034 14.872 23.5154 14.632 23.3394 14.456C23.1794 14.264 22.9554 14.168 22.6674 14.168ZM40.9481 17.648C41.1561 17.648 41.3161 17.744 41.4281 17.936C41.5561 18.128 41.6201 18.392 41.6201 18.728C41.6201 19.368 41.4681 19.864 41.1641 20.216C40.5081 21.016 39.7881 21.704 39.0041 22.28C38.2201 22.84 37.4441 23.12 36.6761 23.12C35.4601 23.12 34.5321 22.408 33.8921 20.984C33.2201 21.832 32.6281 22.4 32.1161 22.688C31.6201 22.976 31.0361 23.12 30.3641 23.12C29.3881 23.12 28.5801 22.76 27.9401 22.04C27.3161 21.304 27.0041 20.352 27.0041 19.184C27.0041 17.904 27.2761 16.72 27.8201 15.632C28.3641 14.528 29.1081 13.632 30.0521 12.944C31.0121 12.24 32.0841 11.824 33.2681 11.696C33.5721 8.592 34.1481 5.944 34.9961 3.752C35.8601 1.544 36.9881 0.439999 38.3801 0.439999C39.0681 0.439999 39.6361 0.751999 40.0841 1.376C40.5481 2 40.7801 2.944 40.7801 4.208C40.7801 6 40.3401 8.096 39.4601 10.496C38.5801 12.896 37.4041 15.36 35.9321 17.888C35.9961 18.816 36.1321 19.48 36.3401 19.88C36.5641 20.28 36.8441 20.48 37.1801 20.48C37.6121 20.48 38.0521 20.288 38.5001 19.904C38.9481 19.52 39.5481 18.88 40.3001 17.984C40.4921 17.76 40.7081 17.648 40.9481 17.648ZM38.1161 2.792C37.8121 2.792 37.5081 3.336 37.2041 4.424C36.9001 5.496 36.6361 6.904 36.4121 8.648C36.2041 10.392 36.0521 12.216 35.9561 14.12C37.7481 10.216 38.6441 7.08 38.6441 4.712C38.6441 4.104 38.5881 3.632 38.4761 3.296C38.3801 2.96 38.2601 2.792 38.1161 2.792ZM31.2041 20.696C31.5081 20.696 31.8121 20.576 32.1161 20.336C32.4201 20.08 32.8041 19.616 33.2681 18.944C33.1081 18.08 33.0281 17.112 33.0281 16.04C33.0281 15.656 33.0441 15.032 33.0761 14.168C32.1961 14.44 31.4601 15.032 30.8681 15.944C30.2921 16.84 30.0041 17.84 30.0041 18.944C30.0041 20.112 30.4041 20.696 31.2041 20.696ZM57.5716 15.704C57.6196 15.688 57.6996 15.68 57.8116 15.68C58.0516 15.68 58.2356 15.76 58.3636 15.92C58.4916 16.08 58.5556 16.296 58.5556 16.568C58.5556 17.064 58.4596 17.456 58.2676 17.744C58.0756 18.016 57.7876 18.216 57.4036 18.344C56.6676 18.584 55.8836 18.704 55.0516 18.704C54.3476 18.704 53.6836 18.608 53.0596 18.416C52.5956 19.168 52.0836 19.944 51.5236 20.744C50.8836 21.656 50.3316 22.28 49.8676 22.616C49.4196 22.952 48.9076 23.12 48.3316 23.12C47.6916 23.12 47.2036 22.872 46.8676 22.376C46.5476 21.88 46.3476 21.064 46.2676 19.928L46.1476 18.176C45.6516 19.52 45.2036 20.544 44.8036 21.248C44.4196 21.952 44.0276 22.44 43.6276 22.712C43.2436 22.984 42.7876 23.12 42.2596 23.12C41.6036 23.12 41.0836 22.864 40.6996 22.352C40.3316 21.84 40.0996 21.032 40.0036 19.928C39.8116 17.688 39.7156 15.728 39.7156 14.048V13.208C39.7316 12.68 39.8756 12.312 40.1476 12.104C40.4196 11.896 40.8276 11.792 41.3716 11.792C41.7876 11.792 42.0916 11.888 42.2836 12.08C42.4916 12.256 42.5956 12.56 42.5956 12.992C42.5956 14.832 42.7076 17.224 42.9316 20.168C44.0196 17.88 45.0196 15.496 45.9316 13.016C46.1076 12.536 46.3156 12.216 46.5556 12.056C46.8116 11.88 47.1156 11.792 47.4676 11.792C47.8996 11.792 48.1956 11.88 48.3556 12.056C48.5316 12.232 48.6196 12.544 48.6196 12.992C48.6196 14.832 48.7316 17.224 48.9556 20.168C49.9156 18.744 50.6356 17.608 51.1156 16.76C50.8756 16.296 50.7556 15.744 50.7556 15.104C50.7556 14.56 50.8756 14.032 51.1156 13.52C51.3556 13.008 51.6836 12.592 52.0996 12.272C52.5156 11.952 52.9876 11.792 53.5156 11.792C53.9796 11.792 54.3556 11.96 54.6436 12.296C54.9316 12.616 55.0756 13.088 55.0756 13.712C55.0756 14.432 54.8836 15.256 54.4996 16.184C55.1076 16.152 55.9156 16.032 56.9236 15.824L57.5716 15.704ZM59.6163 10.232C58.9443 10.232 58.4403 10.08 58.1043 9.776C57.7683 9.456 57.6003 9.016 57.6003 8.456C57.6003 7.896 57.8163 7.432 58.2483 7.064C58.6963 6.68 59.2483 6.488 59.9043 6.488C60.4963 6.488 60.9763 6.632 61.3443 6.92C61.7123 7.208 61.8963 7.616 61.8963 8.144C61.8963 8.784 61.6883 9.296 61.2723 9.68C60.8563 10.048 60.3043 10.232 59.6163 10.232ZM59.4243 23.12C58.3843 23.12 57.6243 22.752 57.1443 22.016C56.6803 21.28 56.4483 20.304 56.4483 19.088C56.4483 18.368 56.5363 17.448 56.7123 16.328C56.9043 15.192 57.1443 14.136 57.4323 13.16C57.5763 12.648 57.7683 12.296 58.0083 12.104C58.2483 11.912 58.6323 11.816 59.1603 11.816C59.9763 11.816 60.3843 12.088 60.3843 12.632C60.3843 13.032 60.2323 13.96 59.9283 15.416C59.5443 17.176 59.3523 18.368 59.3523 18.992C59.3523 19.472 59.4163 19.84 59.5443 20.096C59.6723 20.352 59.8883 20.48 60.1923 20.48C60.4803 20.48 60.8403 20.28 61.2723 19.88C61.7043 19.48 62.2803 18.848 63.0003 17.984C63.1923 17.76 63.4083 17.648 63.6483 17.648C63.8563 17.648 64.0163 17.744 64.1283 17.936C64.2563 18.128 64.3203 18.392 64.3203 18.728C64.3203 19.368 64.1683 19.864 63.8643 20.216C62.2803 22.152 60.8003 23.12 59.4243 23.12ZM66.8426 23.648C66.0106 23.648 65.3706 23.456 64.9226 23.072C64.4906 22.688 64.2746 22.256 64.2746 21.776C64.2746 21.36 64.4266 21 64.7306 20.696C65.0346 20.392 65.4826 20.24 66.0746 20.24C66.2826 20.24 66.5226 20.264 66.7946 20.312C67.0826 20.344 67.2986 20.368 67.4426 20.384C67.4266 19.968 67.3306 19.576 67.1546 19.208C66.9946 18.84 66.7866 18.488 66.5306 18.152C66.2746 17.8 66.0346 17.496 65.8106 17.24C65.3146 18.184 64.8186 18.968 64.3226 19.592C63.8426 20.216 63.3146 20.808 62.7386 21.368C62.4506 21.656 62.1466 21.8 61.8266 21.8C61.5706 21.8 61.3626 21.712 61.2026 21.536C61.0426 21.344 60.9626 21.112 60.9626 20.84C60.9626 20.52 61.0746 20.224 61.2986 19.952L61.6106 19.568C62.4906 18.48 63.1546 17.584 63.6026 16.88C63.8746 16.416 64.1946 15.8 64.5626 15.032C64.9306 14.248 65.2906 13.44 65.6426 12.608C65.9466 11.904 66.5786 11.552 67.5386 11.552C67.9866 11.552 68.2986 11.592 68.4746 11.672C68.6506 11.752 68.7386 11.88 68.7386 12.056C68.7386 12.152 68.7066 12.304 68.6426 12.512C68.5786 12.72 68.4906 12.928 68.3786 13.136C68.0906 13.712 67.9466 14.2 67.9466 14.6C67.9466 14.84 68.0266 15.104 68.1866 15.392C68.3626 15.68 68.6266 16.04 68.9786 16.472C69.4906 17.144 69.8746 17.72 70.1306 18.2C70.4026 18.664 70.5386 19.176 70.5386 19.736C70.5386 19.896 70.5226 20.12 70.4906 20.408C71.2746 20.104 72.1946 19.296 73.2506 17.984C73.4426 17.76 73.6586 17.648 73.8986 17.648C74.1066 17.648 74.2666 17.744 74.3786 17.936C74.5066 18.128 74.5706 18.392 74.5706 18.728C74.5706 19.336 74.4186 19.832 74.1146 20.216C73.3146 21.208 72.5466 21.888 71.8106 22.256C71.0906 22.608 70.1946 22.8 69.1226 22.832C68.4826 23.376 67.7226 23.648 66.8426 23.648ZM81.2128 18.368C81.4208 18.368 81.5808 18.464 81.6928 18.656C81.8208 18.848 81.8848 19.112 81.8848 19.448C81.8848 20.024 81.7488 20.52 81.4768 20.936C81.0288 21.624 80.4368 22.16 79.7008 22.544C78.9808 22.928 78.1168 23.12 77.1088 23.12C75.5728 23.12 74.3808 22.664 73.5328 21.752C72.6848 20.824 72.2607 19.576 72.2607 18.008C72.2607 16.904 72.4928 15.88 72.9568 14.936C73.4208 13.976 74.0608 13.216 74.8768 12.656C75.7088 12.096 76.6448 11.816 77.6848 11.816C78.6128 11.816 79.3568 12.096 79.9168 12.656C80.4768 13.2 80.7568 13.944 80.7568 14.888C80.7568 15.992 80.3568 16.944 79.5568 17.744C78.7728 18.528 77.4288 19.152 75.5248 19.616C75.9088 20.352 76.5568 20.72 77.4688 20.72C78.1248 20.72 78.6608 20.568 79.0768 20.264C79.5088 19.96 80.0048 19.448 80.5648 18.728C80.7568 18.488 80.9728 18.368 81.2128 18.368ZM77.2768 14.168C76.6848 14.168 76.1808 14.512 75.7648 15.2C75.3648 15.888 75.1648 16.72 75.1648 17.696V17.744C76.1088 17.52 76.8528 17.184 77.3968 16.736C77.9408 16.288 78.2128 15.768 78.2128 15.176C78.2128 14.872 78.1248 14.632 77.9488 14.456C77.7888 14.264 77.5648 14.168 77.2768 14.168Z" fill="white"/>
</svg>
